
    <svg width="100%" height="536" viewBox="0 0 697 536" fill="none" xmlns="http://www.w3.org/2000/svg">
      <path
        d="M456.232 235.359C452.047 232.281 449.297 230.217 449.297 230.217C450.458 228.669 468.807 209.123 479.429 193.371C479.429 193.373 457.945 236.619 456.232 235.359Z"
        fill="#2A1E17"
      />
      <path
        d="M196.257 92.885C198.301 96.291 199.209 94.928 205.112 94.474C211.015 94.02 219.412 98.334 222.366 105.599C225.32 112.864 224.41 113.999 222.821 114.908C221.232 115.817 209.879 117.177 209.421 119.448"
        stroke="#2A1E17"
        strokeLinecap="round"
        strokeLinejoin="round"
      />
      <path d="M349.209 462.402L343.92 453.463L325.155 484.738L330.081 488.527L349.209 462.402Z" fill="#FFBEA8" />
      <path
        d="M224.607 384.846C224.607 384.846 214.884 369.037 219.055 361.29L250.075 364.609L224.607 384.846Z"
        fill="#FFBEA8"
      />
      <path
        d="M224.606 384.847L226.464 389.117L220.734 411.466C220.38 412.845 220.419 414.296 220.845 415.655C221.271 417.014 222.068 418.227 223.146 419.157V419.157L251.515 377.221C252.819 375.293 253.39 372.962 253.126 370.65C252.862 368.337 251.78 366.195 250.075 364.611L243.735 358.722L224.606 384.847Z"
        fill="black"
      />
      <path
        d="M209.426 119.447C218.309 119.236 229.567 118.673 227.316 111.919C225.065 105.165 216.622 88.278 197.484 93.344C197.484 93.344 190.73 98.972 199.172 109.105C207.614 119.238 209.426 119.447 209.426 119.447Z"
        fill="#2A1E33"
      />
      <path
        d="M254.391 364.983C254.391 364.983 239.227 320.212 252.058 300.553C262.649 284.329 297.247 310.719 301.988 314.274L326.743 269.565C326.743 269.565 321.029 261.553 306.998 253.707C292.967 245.861 235.004 222.369 207.767 265.347C197.7 281.231 197.546 349.389 216.854 375.512L254.391 364.983Z"
        fill="#313030"
      />
      <path
        d="M254.39 364.983C254.39 364.983 239.226 320.212 252.057 300.553C262.648 284.329 297.246 310.719 301.987 314.274"
        stroke="#2A1E17"
        strokeLinecap="round"
        strokeLinejoin="round"
      />
      <path
        d="M326.743 269.566C315.484 281.418 282.104 339.153 274.597 366.748C264.557 403.659 268.333 434.271 323.518 494.212L350.193 455.358C350.193 455.358 331.438 426.877 334.939 400.03C340.004 361.192 367.639 323.53 381.629 299.646L326.743 269.566Z"
        fill="#313030"
      />
      <path d="M330.98 274.583L375.355 309.409L388.615 289.247L330.98 274.583Z" fill="#2A1E17" />
      <path
        d="M585.842 237.966C592.761 239.449 598.033 242.085 601.659 245.874C605.284 249.664 603.635 251.642 602.318 252.794C601.001 253.946 595.893 252.63 591.445 248.676C586.997 244.722 585.842 237.966 585.842 237.966Z"
        fill="#FFBEA8"
      />
      <path
        d="M449.297 230.217C450.458 228.669 468.807 209.123 479.429 193.371C479.429 193.371 511.536 229.347 515.018 230.508C516.313 230.939 524.184 230.836 533.96 230.736C550.48 230.565 572.439 230.399 577.299 232.829C585.035 236.698 589.678 238.629 591.612 244.047C593.546 249.465 594.312 253 589.678 253.331C584.263 253.718 580.778 246.756 580.778 246.756C580.778 246.756 576.352 249.429 564.917 253.718C564.917 253.718 523.775 269.691 496.272 261.967C488.765 259.857 449.297 230.217 449.297 230.217Z"
        fill="#FFBEA8"
      />
      <path
        d="M199.891 86.5291C196.359 87.8741 194.214 89.4801 196.257 92.8851C198.3 96.2901 199.209 94.9281 205.112 94.4741C211.015 94.0201 219.412 98.3341 222.366 105.599C225.32 112.864 224.41 113.999 222.821 114.908C221.232 115.817 209.879 117.177 209.421 119.448C208.963 121.719 214.021 128.42 224.465 127.966L226.965 127.512C226.965 127.512 248.929 148.963 252.107 152.141C255.285 155.319 278.644 171.141 291.507 174.361C301.288 176.808 321.107 173.652 333.007 171.33C338.79 170.202 342.707 169.269 342.707 169.269C342.707 169.269 333.77 153.169 331.955 128.427C331.955 128.427 310.577 131.862 296.372 134.978C296.372 134.978 263.222 116.498 247.103 108.324C247.103 108.324 233.027 91.0681 226.443 88.7981C219.859 86.5281 204.659 84.7121 199.891 86.5291Z"
        fill="#FFBEA8"
      />
      <path
        d="M333.015 171.33C338.798 170.202 342.715 169.269 342.715 169.269C342.715 169.269 331.905 155.645 330.09 130.898C330.09 130.898 325.203 136.165 326.722 150.18C328.635 167.795 333.015 171.33 333.015 171.33Z"
        fill="#2A1E17"
      />
      <path
        d="M329.569 128.129C329.569 128.129 329.869 158.369 337.969 170.985L340.875 169.822C340.875 169.822 302.694 214.487 290.347 243.673C288.325 248.449 369.618 300.373 381.628 299.647C381.628 299.647 421.234 239.197 434.781 221.278L449.339 232.56C449.339 232.56 477.895 203.643 479.429 193.373C479.429 193.373 451.848 159.812 429.283 149.984C406.718 140.156 386.554 123.324 362.316 123.784C341.334 124.174 329.569 128.129 329.569 128.129Z"
        fill="#6364D9"
      />
      <path d="M449.339 232.559L434.781 221.277L437.1 214.958L449.339 232.559Z" fill="#2A1E17" />
      <path
        d="M471.486 112.977C468.938 120.906 461.575 143.841 453.364 146.672C445.153 149.503 436.605 145.948 436.605 145.948L427.858 150.424C426.882 153.352 419.979 155.873 411.065 156.216C404.465 156.471 400.445 147.996 402.398 141.859C403.298 139.042 406.646 125.153 406.646 125.153C406.646 125.153 413.723 99.1051 420.236 93.7241C426.749 88.3431 432.868 83.0181 450.249 90.0431C476.865 100.807 471.486 112.977 471.486 112.977Z"
        fill="#FFBEA8"
      />
      <path
        d="M418.726 114.11C417.557 118.979 412.494 128.716 409.184 126.963C405.874 125.21 404.705 120.731 407.042 112.163C409.379 103.595 411.325 84.1221 417.942 80.6181C424.559 77.1141 427.484 81.2011 427.484 81.2011C427.484 81.2011 424.564 66.9871 433.132 65.0401C433.132 65.0401 436.052 63.6761 434.884 73.4121C434.884 73.4121 438.196 64.4561 448.905 65.6231C459.614 66.7901 463.315 81.7861 463.315 81.7861C463.621 80.5469 464.357 79.4563 465.391 78.7078C466.424 77.9592 467.69 77.6012 468.963 77.6971C473.832 77.6971 481.231 84.8971 479.478 92.8851C479.478 92.8851 491.937 88.9851 498.563 98.9231C505.189 108.861 504.405 119.759 488.436 124.042C471.736 128.522 471.885 109.048 469.353 106.516C466.821 103.984 464.094 101.064 454.748 104.569C445.402 108.074 435.665 97.7541 435.665 97.7541C435.665 97.7541 434.106 110.216 432.549 111.385C430.992 112.554 427.876 114.111 428.654 108.269C429.432 102.427 430.407 103.011 429.823 101.454C429.239 99.8971 426.602 94.9811 421.059 99.3111C414.826 104.179 418.726 114.11 418.726 114.11Z"
        fill="#2A1E33"
      />
      <path
        d="M421.371 116.291C417.657 113.172 415.081 107.673 418.351 102.176C421.621 96.679 426.967 95.936 428.602 98.016C430.237 100.096 430.868 103.603 429.332 107.762"
        stroke="#2A1E33"
        strokeLinecap="round"
        strokeLinejoin="round"
      />
      <path
        d="M330.079 488.53L331.937 492.8L326.207 515.152C325.853 516.531 325.891 517.982 326.317 519.341C326.743 520.7 327.54 521.913 328.619 522.843V522.843L356.987 480.904C358.291 478.976 358.862 476.645 358.598 474.332C358.334 472.02 357.251 469.878 355.545 468.294L349.207 462.405L330.079 488.53Z"
        fill="black"
      />
      <path
        d="M427.483 81.2001C427.483 81.2001 425.311 74.135 418.8 72.274"
        stroke="#2A1E33"
        strokeLinecap="round"
        strokeLinejoin="round"
      />
      <path d="M289.457 241.539L368.05 131.753" stroke="#2A1E17" strokeLinecap="round" strokeLinejoin="round" />
      <path
        d="M400.444 139.434C397.613 143.116 396.323 158.959 409.35 159.988C422.377 161.017 430.707 155.294 430.707 155.294"
        stroke="#2A1E17"
        strokeLinecap="round"
        strokeLinejoin="round"
      />
      <path
        d="M226.454 88.7991C226.454 88.7991 235.438 100.691 236.854 104.925"
        stroke="#2A1E17"
        strokeLinecap="round"
        strokeLinejoin="round"
      />
      <path
        d="M562.825 248.208C562.825 248.208 568.825 253.15 580.78 246.755C585.115 244.436 582.028 238.949 576.541 240.32C571.054 241.691 564.541 239.635 564.541 239.635"
        stroke="#2A1E17"
        strokeLinecap="round"
        strokeLinejoin="round"
      />
      <path
        d="M587.902 238.652C587.902 238.652 593.66 245.37 593.502 249.361"
        stroke="#2A1E17"
        strokeLinecap="round"
        strokeLinejoin="round"
      />
      <path
        d="M503.157 237.921C503.157 237.921 508.363 230.983 515.018 230.508"
        stroke="#2A1E17"
        strokeLinecap="round"
        strokeLinejoin="round"
      />
      <path
        d="M283.603 146.187C283.603 146.187 286.643 136.719 296.383 134.978"
        stroke="#2A1E17"
        strokeLinecap="round"
        strokeLinejoin="round"
      />
      <path
        d="M309.994 289.882L298.377 312.108C298.377 312.108 260.067 376.94 273.065 418.824"
        stroke="#2A1E17"
        strokeLinecap="round"
        strokeLinejoin="round"
      />
      <path
        d="M343.934 364.262L381.628 299.646C381.628 299.646 431.028 227.993 436.087 217.883L453.522 185.632"
        stroke="#2A1E17"
        strokeLinecap="round"
        strokeLinejoin="round"
      />
      <path
        d="M294.72 248.421C294.72 248.421 361.75 297.292 381.628 299.646"
        stroke="#2A1E17"
        strokeLinecap="round"
        strokeLinejoin="round"
      />
      <path
        d="M329.569 128.128C329.569 128.128 329.508 158.796 337.776 171.371"
        stroke="#2A1E17"
        strokeLinecap="round"
        strokeLinejoin="round"
      />
      <path
        d="M477.277 188.515C475.172 201.157 447.187 227.703 447.187 227.703"
        stroke="#2A1E17"
        strokeLinecap="round"
        strokeLinejoin="round"
      />
      <path
        d="M268.49 345.944C270.688 345.944 272.47 344.162 272.47 341.964C272.47 339.766 270.688 337.984 268.49 337.984C266.292 337.984 264.51 339.766 264.51 341.964C264.51 344.162 266.292 345.944 268.49 345.944Z"
        fill="#2A1E17"
      />
      <path
        d="M641.923 427.495L639.723 412.27L652.709 420.903L645.909 422.385L641.923 427.495Z"
        stroke="#2A1E17"
        strokeLinecap="round"
        strokeLinejoin="round"
      />
      <path
        d="M211.271 167.598C186.665 145.886 146.002 200.031 294.794 372.352C380.626 471.759 448.065 480.675 457.199 446.091C473.59 384.044 414.399 368.36 436.422 392.662C468.449 427.999 559.543 435.462 627.422 402.488C694.401 369.95 653.232 319.419 649.073 316.471"
        stroke="#2A1E17"
        strokeLinecap="round"
        strokeLinejoin="round"
      />
      <path
        d="M628.495 406.158C630.693 406.158 632.475 404.376 632.475 402.178C632.475 399.98 630.693 398.198 628.495 398.198C626.297 398.198 624.515 399.98 624.515 402.178C624.515 404.376 626.297 406.158 628.495 406.158Z"
        fill="#2A1E17"
      />
      <path d="M570.577 434.665L688.558 368.166" stroke="#2A1E17" strokeLinecap="round" strokeLinejoin="round" />
      <path
        d="M213.724 174.795C215.922 174.795 217.704 173.013 217.704 170.815C217.704 168.617 215.922 166.835 213.724 166.835C211.526 166.835 209.744 168.617 209.744 170.815C209.744 173.013 211.526 174.795 213.724 174.795Z"
        fill="#2A1E17"
      />
      <path
        d="M315.215 97.179C319.931 97.179 323.754 93.3559 323.754 88.64C323.754 83.924 319.931 80.101 315.215 80.101C310.499 80.101 306.676 83.924 306.676 88.64C306.676 93.3559 310.499 97.179 315.215 97.179Z"
        fill="#FF6D66"
      />
      <path
        d="M160.264 29.018C161.233 29.018 162.018 28.2327 162.018 27.264C162.018 26.2953 161.233 25.51 160.264 25.51C159.295 25.51 158.51 26.2953 158.51 27.264C158.51 28.2327 159.295 29.018 160.264 29.018Z"
        stroke="#A0C6F4"
        strokeWidth="4"
        strokeMiterlimit="10"
      />
      <path
        d="M663.252 489.74C665.325 489.74 667.006 488.059 667.006 485.986C667.006 483.913 665.325 482.232 663.252 482.232C661.179 482.232 659.498 483.913 659.498 485.986C659.498 488.059 661.179 489.74 663.252 489.74Z"
        fill="#FAD8B0"
      />
      <path
        d="M596.179 316.454L555.824 297.517C555.095 297.175 554.481 296.631 554.054 295.95C553.626 295.268 553.404 294.478 553.414 293.674C553.424 292.869 553.665 292.085 554.109 291.414C554.553 290.743 555.18 290.214 555.917 289.89L630.994 256.856C631.519 256.625 632.087 256.505 632.662 256.502C633.236 256.499 633.805 256.615 634.333 256.841L685.901 278.976L596.179 316.454Z"
        fill="#2A1E33"
      />
      <path
        d="M593.681 254.216C593.781 270.916 596.181 316.454 596.181 316.454L685.903 278.976L683.89 215.604C683.861 214.707 683.612 213.831 683.163 213.053C682.714 212.276 682.081 211.621 681.318 211.148C680.556 210.674 679.688 210.396 678.792 210.339C677.896 210.281 677 210.446 676.184 210.818L598.932 246.018C597.358 246.731 596.025 247.885 595.093 249.34C594.161 250.795 593.671 252.488 593.681 254.216V254.216Z"
        fill="#C6CBCB"
      />
      <path
        d="M596.181 316.454L685.903 278.976L683.89 215.604C683.89 215.604 683.29 208.686 676.184 210.818"
        stroke="#2A1E17"
        strokeLinecap="round"
        strokeLinejoin="round"
      />
      <path d="M639.608 270.907L645.666 256.589" stroke="#2A1E17" strokeLinecap="round" strokeLinejoin="round" />
      <path d="M645.665 270.907L651.723 256.589" stroke="#2A1E17" strokeLinecap="round" strokeLinejoin="round" />
      <path
        d="M176.447 427.093C178.52 427.093 180.201 425.412 180.201 423.339C180.201 421.266 178.52 419.585 176.447 419.585C174.374 419.585 172.693 421.266 172.693 423.339C172.693 425.412 174.374 427.093 176.447 427.093Z"
        fill="#FF6D66"
      />
      <path
        d="M492.95 447.152C495.831 447.152 498.166 444.817 498.166 441.936C498.166 439.055 495.831 436.72 492.95 436.72C490.069 436.72 487.734 439.055 487.734 441.936C487.734 444.817 490.069 447.152 492.95 447.152Z"
        fill="#FF6D66"
      />
      <path
        d="M215.349 478.997C230.212 485.823 246.395 489.293 262.749 489.16C263.053 489.16 263.353 489.224 263.63 489.349C263.906 489.474 264.153 489.656 264.354 489.884C264.554 490.112 264.704 490.38 264.793 490.67C264.882 490.96 264.908 491.266 264.869 491.567L261.594 517.56C261.538 518.01 261.34 518.431 261.029 518.761C260.718 519.091 260.31 519.313 259.864 519.396C253.221 520.644 226.441 524.318 206.411 507.333C206.106 507.07 205.881 506.726 205.763 506.341C205.646 505.956 205.639 505.545 205.745 505.156L212.364 480.377C212.445 480.073 212.591 479.791 212.793 479.551C212.995 479.31 213.247 479.117 213.532 478.985C213.817 478.853 214.128 478.786 214.442 478.788C214.756 478.79 215.066 478.862 215.349 478.997V478.997Z"
        fill="#FFA950"
      />
      <path
        d="M217.703 486.636C217.703 486.636 229.275 502.896 233.403 505.224C237.531 507.552 259.803 494.275 259.803 494.275"
        stroke="#2A1E17"
        strokeLinecap="round"
        strokeLinejoin="round"
      />
      <path d="M244.311 502.957L256.467 515.453" stroke="#2A1E17" strokeLinecap="round" strokeLinejoin="round" />
      <path d="M227.422 500.549L213.203 504.414" stroke="#2A1E17" strokeLinecap="round" strokeLinejoin="round" />
      <path d="M587.577 171.499H573.996V185.08H587.577V171.499Z" fill="#FFE1C0" />
      <path
        d="M575.837 354.693L579.874 361.684L583.911 368.676H567.764L571.801 361.684L575.837 354.693Z"
        fill="#A0C6F4"
      />
      <path
        d="M570.279 457.328L581.41 477.882C582.582 479.723 582.167 480.77 581.157 481.705C576.388 486.123 561.912 499.578 540.67 504.822C537.926 505.499 537.276 504.222 536.66 503.081L526.06 483.481C525.897 483.093 525.817 482.676 525.824 482.256C525.832 481.835 525.928 481.421 526.106 481.04C526.283 480.659 526.539 480.319 526.855 480.043C527.172 479.766 527.544 479.559 527.945 479.435C534.967 476.379 541.764 472.829 548.283 468.811C554.657 465.12 560.705 460.893 566.361 456.177C567.949 454.778 569.409 455.722 570.279 457.328Z"
        stroke="#2A1E17"
        strokeLinecap="round"
        strokeLinejoin="round"
      />
      <path
        d="M565.911 463.842L562.592 482.348L544.186 477.663C548.975 476.618 565.911 463.842 565.911 463.842Z"
        stroke="#2A1E17"
        strokeLinecap="round"
        strokeLinejoin="round"
      />
      <path
        d="M552.788 480.418L548.258 492.224L538.079 491.301L533.12 483.447L544.185 477.657"
        stroke="#2A1E17"
        strokeLinecap="round"
        strokeLinejoin="round"
      />
      <path
        d="M572.107 480.629C573.315 480.078 573.914 478.8 573.446 477.776C572.978 476.751 571.619 476.369 570.412 476.921C569.204 477.472 568.605 478.75 569.073 479.774C569.541 480.799 570.9 481.181 572.107 480.629Z"
        stroke="#2A1E17"
        strokeLinecap="round"
        strokeLinejoin="round"
      />
      <path
        d="M371.604 182.448H221.822C218.793 182.448 216.338 184.903 216.338 187.932V213.102C216.338 216.131 218.793 218.586 221.822 218.586H371.604C374.633 218.586 377.088 216.131 377.088 213.102V187.932C377.088 184.903 374.633 182.448 371.604 182.448Z"
        fill="#7595EC"
      />
      <path
        d="M315.712 193.087H235.277C234.276 193.087 233.465 193.898 233.465 194.899V196.774C233.465 197.775 234.276 198.586 235.277 198.586H315.712C316.713 198.586 317.524 197.775 317.524 196.774V194.899C317.524 193.898 316.713 193.087 315.712 193.087Z"
        fill="white"
      />
      <path d="M234.251 205.71H367.803" stroke="#2A1E17" strokeLinecap="round" strokeLinejoin="round" />
      <path
        d="M165.923 114.47L168.789 117.608C169.093 117.941 169.252 118.381 169.231 118.831C169.211 119.281 169.013 119.705 168.68 120.008L163.661 124.592C163.329 124.896 162.889 125.055 162.439 125.034C161.989 125.014 161.565 124.816 161.261 124.483L158.395 121.345L165.923 114.47Z"
        fill="#91BA83"
      />
      <path
        d="M145.135 109.248L156.529 121.724C156.894 122.123 157.514 122.151 157.913 121.787L166.064 114.343C166.463 113.978 166.491 113.359 166.126 112.959L154.732 100.483C154.368 100.084 153.748 100.056 153.349 100.42L145.198 107.864C144.799 108.229 144.771 108.848 145.135 109.248Z"
        stroke="#2A1E17"
        strokeWidth="0.99946"
        strokeLinecap="round"
        strokeLinejoin="round"
      />
      <path d="M134.272 162.931H120.807V175.225H134.272V162.931Z" fill="#FF6D66" />
      <path d="M120.807 155.02V162.931H112.75" stroke="#2A1E17" strokeLinecap="round" strokeLinejoin="round" />
      <path d="M577.842 24.1H564.377V36.394H577.842V24.1Z" fill="#FAD8B0" />
      <path d="M564.377 16.189V24.1H556.323" stroke="#2A1E17" strokeLinecap="round" strokeLinejoin="round" />
      <path
        d="M199.977 100.086C60.3961 42.2249 -47.0599 153.661 216.055 324.3C236.774 337.737 268.546 342.451 268.546 342.451"
        stroke="#2A1E17"
        strokeLinecap="round"
        strokeLinejoin="round"
      />
      <path
        d="M71.5999 107.961C73.798 107.961 75.5799 106.179 75.5799 103.981C75.5799 101.783 73.798 100.001 71.5999 100.001C69.4018 100.001 67.6199 101.783 67.6199 103.981C67.6199 106.179 69.4018 107.961 71.5999 107.961Z"
        fill="#2A1E17"
      />
      <path
        d="M400.535 517.96L446.385 505.686L448.134 510.655L401.768 522.691L400.535 517.96Z"
        stroke="#2A1E17"
        strokeLinecap="round"
        strokeLinejoin="round"
      />
      <path d="M394.173 511.548L395.496 515.711" stroke="#2A1E17" strokeLinecap="round" strokeLinejoin="round" />
      <path d="M392.881 514.263L396.75 512.934" stroke="#2A1E17" strokeLinecap="round" strokeLinejoin="round" />
      <path d="M391.948 527.445L394.443 535.298" stroke="#2A1E17" strokeLinecap="round" strokeLinejoin="round" />
      <path d="M389.823 532.424L396.712 530.235" stroke="#2A1E17" strokeLinecap="round" strokeLinejoin="round" />
      <path d="M381.47 514.484L384.724 524.884" stroke="#2A1E17" strokeLinecap="round" strokeLinejoin="round" />
      <path d="M378.236 520.961L387.891 517.879" stroke="#2A1E17" strokeLinecap="round" strokeLinejoin="round" />
      <path
        d="M174.653 264.919C154.202 250.195 134.109 227.313 142.922 203.809C142.922 203.809 157.022 194.409 179.355 206.16L201.683 217.912L174.653 264.919Z"
        fill="#FAD8B0"
      />
      <path
        d="M165.734 364.035C164.383 363.416 162.033 362.293 159.052 360.683C154.66 358.309 147.959 354.361 140.984 349.029C133.172 343.058 126.613 336.603 121.489 329.843C115.123 321.445 110.968 312.55 109.139 303.404C107.307 294.246 107.987 283.382 111.158 271.113C113.715 261.222 117.886 250.416 123.554 238.995C128.608 228.811 133.938 220.021 137.52 214.44C138.232 213.331 138.905 212.301 139.528 211.359C138.47 220.089 140.814 229.164 146.538 238.441C153.952 250.458 165.443 260.133 173.777 266.133C185.773 274.77 194.147 278.726 206.636 283.369L165.734 364.035Z"
        fill="white"
      />
      <path
        d="M137.8 216.794C134.284 222.359 129.452 230.475 124.855 239.747C119.246 251.063 115.122 261.758 112.598 271.537C109.494 283.565 108.825 294.187 110.61 303.11C112.392 312.02 116.446 320.698 122.66 328.904C127.693 335.551 134.145 341.906 141.836 347.792C148.729 353.068 155.356 356.978 159.702 359.329C161.871 360.502 163.703 361.415 165.054 362.06L204.54 284.185C192.98 279.807 184.436 275.656 172.901 267.351C164.456 261.271 152.805 251.456 145.261 239.229C140.559 231.608 138.068 224.105 137.8 216.794ZM142.923 203.806C134.109 227.31 154.203 250.192 174.654 264.916C186.925 273.751 195.514 277.697 208.735 282.545L166.427 365.985C166.427 365.985 115.894 344.83 107.668 303.698C99.4416 262.567 142.923 203.806 142.923 203.806Z"
        fill="#FAD8B0"
      />
      <path
        d="M131.489 237.953C132.766 245.597 135.788 252.845 140.32 259.132C144.852 265.419 150.773 270.576 157.622 274.204"
        stroke="#2A1E17"
        strokeLinecap="round"
        strokeLinejoin="round"
      />
      <path d="M170.268 282.634L193.873 295.279" stroke="#2A1E17" strokeLinecap="round" strokeLinejoin="round" />
      <path
        d="M134.86 271.675C134.86 271.675 142.447 288.534 166.896 299.494"
        stroke="#2A1E17"
        strokeLinecap="round"
        strokeLinejoin="round"
      />
      <path
        d="M115.472 274.204C115.472 274.204 116.314 291.904 128.117 297.804"
        stroke="#2A1E17"
        strokeLinecap="round"
        strokeLinejoin="round"
      />
      <path
        d="M142.447 212.662C142.447 212.662 140.26 235.398 174.653 264.916"
        stroke="#2A1E17"
        strokeLinecap="round"
        strokeLinejoin="round"
      />
      <path
        d="M155.095 216.877C155.095 216.877 166.053 216.035 182.072 227.837"
        stroke="#2A1E17"
        strokeLinecap="round"
        strokeLinejoin="round"
      />
      <path
        d="M103.556 289.466C102.85 300.742 104.256 341.612 163.456 367.685"
        stroke="#2A1E17"
        strokeLinecap="round"
        strokeLinejoin="round"
      />
      <path
        d="M481.528 266.728L456.421 317.047C456.421 317.047 473.45 323.314 460.138 342.834C460.138 342.834 491.612 355.887 512.207 321.986C532.802 288.085 481.528 266.728 481.528 266.728Z"
        fill="#91BA83"
      />
      <path
        d="M424.065 421.282C411.015 421.282 397.257 415.899 383.156 405.279L430.896 326.193L459.339 344.104L459.447 344.171L459.564 344.22C459.818 344.326 465.897 346.804 474.522 346.805C474.522 346.805 474.524 346.805 474.525 346.805C482.308 346.805 492.381 344.759 501.865 336.707L465.522 398.883C465.223 399.325 461.473 404.763 454.729 410.121C450.64 413.369 446.263 415.955 441.72 417.807C436.063 420.112 430.125 421.281 424.068 421.282C424.067 421.282 424.066 421.282 424.065 421.282Z"
        fill="white"
      />
      <path
        d="M431.391 328.277L385.144 404.889C398.598 414.774 411.681 419.782 424.068 419.782C429.909 419.782 435.638 418.658 441.096 416.442C445.498 414.655 449.744 412.154 453.716 409.011C460.195 403.882 463.854 398.664 464.253 398.082L496.976 342.099C489 346.942 480.997 348.305 474.522 348.305C465.602 348.305 459.255 345.716 458.989 345.606L458.755 345.508L431.391 328.277ZM512.207 321.986L466.794 399.68C466.794 399.68 451.57 422.782 424.068 422.782C412.038 422.782 397.66 418.363 381.176 405.657L430.402 324.109L460.138 342.834C460.138 342.834 466.097 345.305 474.522 345.305C485.465 345.305 500.571 341.14 512.207 321.986Z"
        fill="#96BD89"
      />
      <path
        d="M456.421 317.047C456.421 317.047 475.147 323.658 460.138 342.834"
        stroke="#2A1E17"
        strokeLinecap="round"
        strokeLinejoin="round"
      />
      <path
        d="M429.821 322.362C429.821 322.362 455.327 345.727 469.449 345.569C483.571 345.411 500.128 342.049 509.896 325.205"
        stroke="#2A1E17"
        strokeLinecap="round"
        strokeLinejoin="round"
      />
      <path
        d="M432.949 352.589C432.949 352.589 450.458 368.136 470.036 363.142"
        stroke="#2A1E17"
        strokeLinecap="round"
        strokeLinejoin="round"
      />
      <path
        d="M451.338 375.821C451.338 375.821 460.525 382.706 473.366 376.194"
        stroke="#2A1E17"
        strokeLinecap="round"
        strokeLinejoin="round"
      />
      <path
        d="M409.082 385.401C409.082 385.401 430.282 406.478 463.643 392.575"
        stroke="#2A1E17"
        strokeLinecap="round"
        strokeLinejoin="round"
      />
      <path
        d="M420.615 364.842C420.615 364.842 429.263 371.025 434.68 373"
        stroke="#2A1E17"
        strokeLinecap="round"
        strokeLinejoin="round"
      />
      <path
        d="M485.84 281.334C485.84 281.334 505.192 287.663 507.509 313.197"
        stroke="#2A1E17"
        strokeLinecap="round"
        strokeLinejoin="round"
      />
      <path
        d="M495.567 312.888C495.567 312.888 504.476 326.674 489.418 340.461"
        stroke="#2A1E17"
        strokeLinecap="round"
        strokeLinejoin="round"
      />
      <path
        d="M382.97 409.501C382.97 409.501 431.562 451.117 466.826 402.454"
        stroke="#2A1E17"
        strokeLinecap="round"
        strokeLinejoin="round"
      />
      <path d="M32.2332 251.023H43.5612" stroke="#FF6D66" strokeLinecap="round" strokeLinejoin="round" />
      <path d="M663.252 114.777H674.58" stroke="#FF6D66" strokeLinecap="round" strokeLinejoin="round" />
      <path d="M359.476 37.056H370.804" stroke="#FAD8B0" strokeMiterlimit="10" />
      <path d="M684.879 173.531L696.028 175.534" stroke="#FAD8B0" strokeMiterlimit="10" />
      <path d="M239.906 456.179H251.234" stroke="#A0C6F4" strokeLinecap="round" strokeLinejoin="round" />
      <path
        d="M4.45297 138.68C6.52625 138.68 8.20697 136.999 8.20697 134.926C8.20697 132.853 6.52625 131.172 4.45297 131.172C2.3797 131.172 0.698975 132.853 0.698975 134.926C0.698975 136.999 2.3797 138.68 4.45297 138.68Z"
        fill="#91BA83"
      />
      <path
        d="M69.1648 23.588C75.5404 23.588 80.7088 18.4196 80.7088 12.044C80.7088 5.66842 75.5404 0.5 69.1648 0.5C62.7893 0.5 57.6208 5.66842 57.6208 12.044C57.6208 18.4196 62.7893 23.588 69.1648 23.588Z"
        fill="#FFE07D"
      />
      <path
        d="M75.7267 2.547C77.2629 4.76969 77.9708 7.4608 77.7271 10.1517C77.4833 12.8425 76.3035 15.3627 74.3929 17.2732C72.4824 19.1837 69.9623 20.3636 67.2714 20.6073C64.5806 20.851 61.8894 20.1432 59.6667 18.607C60.6285 19.9986 61.8844 21.1619 63.3456 22.0144C64.8067 22.867 66.4373 23.388 68.1221 23.5406C69.8068 23.6932 71.5046 23.4736 73.0951 22.8975C74.6856 22.3213 76.13 21.4027 77.3262 20.2065C78.5224 19.0103 79.4411 17.5658 80.0172 15.9753C80.5934 14.3848 80.8129 12.6871 80.6603 11.0023C80.5077 9.31756 79.9867 7.68692 79.1342 6.2258C78.2816 4.76468 77.1184 3.50879 75.7267 2.547V2.547Z"
        fill="#FFD064"
      />
      <path
        d="M64.5886 16.5099C63.9115 16.4891 63.2678 16.2109 62.7886 15.7319C62.7133 15.6568 62.6534 15.5676 62.6125 15.4694C62.5716 15.3711 62.5505 15.2658 62.5503 15.1594C62.5501 15.0529 62.5709 14.9475 62.6114 14.8491C62.652 14.7508 62.7115 14.6613 62.7866 14.5859C62.8617 14.5106 62.951 14.4507 63.0492 14.4098C63.1475 14.3689 63.2528 14.3478 63.3592 14.3476C63.4656 14.3474 63.571 14.3682 63.6694 14.4087C63.7678 14.4493 63.8572 14.5088 63.9326 14.5839C63.9626 14.6119 64.4326 15.0459 64.8486 14.8129C64.959 14.7493 65.0504 14.6574 65.1133 14.5467C65.1763 14.4359 65.2085 14.3103 65.2066 14.1829V8.16194C65.2066 7.94698 65.292 7.74083 65.444 7.58884C65.596 7.43684 65.8022 7.35144 66.0171 7.35144C66.2321 7.35144 66.4382 7.43684 66.5902 7.58884C66.7422 7.74083 66.8276 7.94698 66.8276 8.16194V14.1869C66.8294 14.6034 66.7198 15.0128 66.5102 15.3727C66.3006 15.7326 65.9987 16.0299 65.6356 16.2339C65.316 16.414 64.9555 16.5091 64.5886 16.5099Z"
        fill="#595454"
      />
      <path
        d="M72.0548 16.5199C71.4602 16.523 70.8715 16.4037 70.3251 16.1693C69.7787 15.935 69.2864 15.5907 68.8788 15.1579C68.8053 15.0795 68.7483 14.9872 68.7109 14.8865C68.6734 14.7858 68.6564 14.6786 68.6608 14.5712C68.6652 14.4639 68.691 14.3585 68.7365 14.2612C68.782 14.1638 68.8465 14.0765 68.9261 14.0044C69.0057 13.9322 69.0989 13.8766 69.2002 13.8408C69.3015 13.805 69.4089 13.7897 69.5162 13.7958C69.6234 13.8019 69.7284 13.8292 69.825 13.8763C69.9216 13.9234 70.0078 13.9892 70.0787 14.0699C70.3335 14.3361 70.6404 14.547 70.9801 14.6897C71.3199 14.8323 71.6853 14.9035 72.0538 14.8989C72.358 14.9228 72.6615 14.8437 72.9154 14.6743C73.1694 14.5049 73.3589 14.2551 73.4537 13.9649C73.5667 13.3309 72.7628 12.9649 72.4118 12.8319C71.2688 12.4099 70.2548 11.9589 70.2118 11.9399C70.1729 11.9226 70.1354 11.9022 70.0998 11.8789C69.7374 11.6454 69.4502 11.312 69.2727 10.9191C69.0953 10.5261 69.0353 10.0902 69.0998 9.66393C69.1753 9.19195 69.3852 8.75173 69.7045 8.39596C70.0237 8.0402 70.4387 7.78397 70.8998 7.65794C71.528 7.50019 72.1842 7.49033 72.8168 7.62915C73.4495 7.76797 74.0413 8.05167 74.5458 8.45794C74.7107 8.59572 74.8142 8.79338 74.8334 9.00745C74.8526 9.22153 74.786 9.43447 74.6483 9.59943C74.58 9.68112 74.4964 9.74856 74.4021 9.79792C74.3078 9.84728 74.2047 9.87758 74.0987 9.8871C73.8847 9.90632 73.6717 9.83971 73.5068 9.70193C73.2093 9.46836 72.8641 9.3031 72.4957 9.2179C72.1272 9.1327 71.7445 9.12964 71.3748 9.20894C71.2076 9.24312 71.0546 9.32669 70.9355 9.44881C70.8164 9.57094 70.7367 9.72601 70.7068 9.89394C70.6875 10.0059 70.6993 10.1209 70.7407 10.2267C70.7821 10.3324 70.8516 10.4248 70.9418 10.4939C71.1868 10.6009 72.0478 10.9739 72.9738 11.3149C74.7738 11.9789 75.2258 13.2679 75.0498 14.2539C74.8939 14.9221 74.5091 15.5145 73.962 15.9284C73.4149 16.3424 72.7401 16.5517 72.0548 16.5199V16.5199Z"
        fill="#595454"
      />
      <path
        d="M53.1937 37.391H36.8737C33.8352 37.391 30.921 36.1839 28.7724 34.0353C26.6238 31.8867 25.4167 28.9725 25.4167 25.934V25.922C25.4167 22.8834 26.6238 19.9693 28.7724 17.8206C30.921 15.672 33.8352 14.465 36.8737 14.465H53.1937C56.2322 14.4652 59.146 15.6724 61.2944 17.821C63.4428 19.9696 64.6497 22.8836 64.6497 25.922V25.931C64.6501 27.4357 64.3541 28.9257 63.7786 30.3161C63.2031 31.7064 62.3593 32.9697 61.2955 34.0339C60.2317 35.0981 58.9686 35.9423 57.5785 36.5183C56.1884 37.0943 54.6985 37.3908 53.1937 37.391Z"
        fill="#FB74C4"
      />
      <path
        d="M59.6916 16.492C60.8772 18.2125 61.5698 20.2243 61.6947 22.31C61.8196 24.3957 61.3719 26.4758 60.4001 28.3255C59.4283 30.1752 57.9694 31.724 56.1811 32.8045C54.3927 33.885 52.343 34.4561 50.2536 34.456H33.9426C31.6206 34.4589 29.3529 33.7532 27.4426 32.433C28.4956 33.963 29.905 35.2139 31.5493 36.0777C33.1935 36.9414 35.0233 37.3922 36.8806 37.391H53.1886C55.6336 37.3908 58.0144 36.6088 59.9832 35.1591C61.9521 33.7095 63.4057 31.6682 64.1318 29.3336C64.8579 26.9989 64.8184 24.4933 64.019 22.1827C63.2196 19.8721 61.7022 17.8778 59.6886 16.491L59.6916 16.492Z"
        fill="#DD5CA2"
      />
      <path
        d="M42.1328 21.449C41.9179 21.449 41.7119 21.5343 41.56 21.6862C41.4081 21.8381 41.3228 22.0442 41.3228 22.259V29.6C41.3228 29.8149 41.4081 30.0211 41.5601 30.1731C41.7121 30.3251 41.9183 30.4105 42.1333 30.4105C42.3482 30.4105 42.5544 30.3251 42.7064 30.1731C42.8584 30.0211 42.9438 29.8149 42.9438 29.6V26.614H46.4028V29.6C46.4028 29.8149 46.4881 30.0211 46.6401 30.1731C46.7921 30.3251 46.9983 30.4105 47.2133 30.4105C47.4282 30.4105 47.6344 30.3251 47.7864 30.1731C47.9384 30.0211 48.0237 29.8149 48.0237 29.6V22.259C48.0237 22.044 47.9384 21.8379 47.7864 21.6859C47.6344 21.5339 47.4282 21.4485 47.2133 21.4485C46.9983 21.4485 46.7921 21.5339 46.6401 21.6859C46.4881 21.8379 46.4028 22.044 46.4028 22.259V24.993H42.9438V22.259C42.9438 22.1525 42.9228 22.0471 42.882 21.9488C42.8412 21.8504 42.7815 21.7611 42.7061 21.6859C42.6308 21.6106 42.5414 21.551 42.443 21.5103C42.3446 21.4697 42.2392 21.4488 42.1328 21.449V21.449Z"
        fill="#595454"
      />
      <path
        d="M35.7377 29.6V27.217C36.1747 27.217 36.6867 27.217 36.9717 27.217C37.736 27.217 38.4691 26.9134 39.0096 26.3729C39.55 25.8324 39.8537 25.0994 39.8537 24.335C39.8537 23.5707 39.55 22.8376 39.0096 22.2971C38.4691 21.7566 37.736 21.453 36.9717 21.453H34.9277C34.7132 21.4546 34.5079 21.5406 34.3563 21.6923C34.2047 21.8441 34.119 22.0495 34.1177 22.264V29.605C34.1177 29.82 34.2031 30.0261 34.3551 30.1781C34.5071 30.3301 34.7132 30.4155 34.9282 30.4155C35.1431 30.4155 35.3493 30.3301 35.5013 30.1781C35.6533 30.0261 35.7387 29.82 35.7387 29.605L35.7377 29.6ZM36.9717 23.07C37.1415 23.0632 37.3109 23.0908 37.4698 23.1512C37.6287 23.2115 37.7738 23.3033 37.8963 23.4211C38.0189 23.5388 38.1164 23.6801 38.183 23.8365C38.2496 23.9928 38.2839 24.1611 38.2839 24.331C38.2839 24.501 38.2496 24.6692 38.183 24.8255C38.1164 24.9819 38.0189 25.1232 37.8963 25.241C37.7738 25.3587 37.6287 25.4505 37.4698 25.5108C37.3109 25.5712 37.1415 25.5988 36.9717 25.592C36.6887 25.592 36.1837 25.592 35.7477 25.592C35.7477 25.142 35.7477 24.617 35.7477 24.326C35.7477 24.081 35.7477 23.535 35.7477 23.065L36.9717 23.07Z"
        fill="#595454"
      />
      <path
        d="M51.7926 29.6V27.217C52.2296 27.217 52.7416 27.217 53.0266 27.217C53.791 27.217 54.524 26.9134 55.0645 26.3729C55.605 25.8324 55.9086 25.0994 55.9086 24.335C55.9086 23.5707 55.605 22.8376 55.0645 22.2971C54.524 21.7566 53.791 21.453 53.0266 21.453H50.9826C50.7679 21.4543 50.5624 21.5402 50.4106 21.692C50.2588 21.8438 50.1729 22.0493 50.1716 22.264V29.605C50.179 29.815 50.2676 30.014 50.4188 30.16C50.57 30.3059 50.772 30.3875 50.9821 30.3875C51.1923 30.3875 51.3942 30.3059 51.5454 30.16C51.6966 30.014 51.7853 29.815 51.7926 29.605V29.6ZM53.0266 23.07C53.1964 23.0632 53.3659 23.0908 53.5248 23.1512C53.6837 23.2115 53.8287 23.3033 53.9513 23.4211C54.0738 23.5388 54.1713 23.6801 54.2379 23.8365C54.3045 23.9928 54.3389 24.1611 54.3389 24.331C54.3389 24.501 54.3045 24.6692 54.2379 24.8255C54.1713 24.9819 54.0738 25.1232 53.9513 25.241C53.8287 25.3587 53.6837 25.4505 53.5248 25.5108C53.3659 25.5712 53.1964 25.5988 53.0266 25.592C52.7436 25.592 52.2386 25.592 51.8026 25.592C51.8026 25.142 51.8026 24.617 51.8026 24.326C51.8026 24.081 51.8026 23.535 51.8026 23.065L53.0266 23.07Z"
        fill="#595454"
      />
      <path
        d="M69.2709 52.084H61.1399C58.1013 52.084 55.1871 50.8769 53.0385 48.7283C50.8899 46.5797 49.6829 43.6656 49.6829 40.627V40.618C49.6829 37.5794 50.8899 34.6653 53.0385 32.5167C55.1871 30.3681 58.1013 29.161 61.1399 29.161H69.2709C72.3094 29.161 75.2236 30.3681 77.3722 32.5167C79.5208 34.6653 80.7279 37.5794 80.7279 40.618V40.627C80.7279 43.6656 79.5208 46.5797 77.3722 48.7283C75.2236 50.8769 72.3094 52.084 69.2709 52.084V52.084Z"
        fill="#FCB143"
      />
      <path
        d="M75.7636 31.184C76.9492 32.9045 77.6418 34.9163 77.7667 37.002C77.8916 39.0877 77.4439 41.1678 76.4721 43.0175C75.5003 44.8672 74.0414 46.416 72.2531 47.4965C70.4647 48.577 68.415 49.1481 66.3256 49.148H58.2026C55.8806 49.151 53.6129 48.4452 51.7026 47.125C52.7556 48.655 54.165 49.9059 55.8093 50.7697C57.4535 51.6334 59.2833 52.0842 61.1406 52.083H69.2636C71.7086 52.0828 74.0894 51.3008 76.0582 49.8511C78.0271 48.4015 79.4807 46.3602 80.2068 44.0256C80.9329 41.691 80.8934 39.1853 80.094 36.8747C79.2946 34.5642 77.7772 32.5698 75.7636 31.183V31.184Z"
        fill="#FA9801"
      />
      <path
        d="M74.9048 37.717H73.4518L74.1798 34.217C74.2015 34.1128 74.2024 34.0054 74.1826 33.9008C74.1627 33.7963 74.1224 33.6966 74.0641 33.6076C74.0057 33.5186 73.9304 33.442 73.8424 33.3821C73.7544 33.3222 73.6555 33.2802 73.5513 33.2586C73.4471 33.2369 73.3396 33.2359 73.2351 33.2558C73.1305 33.2757 73.0309 33.3159 72.9419 33.3743C72.8529 33.4327 72.7762 33.508 72.7163 33.596C72.6564 33.6839 72.6145 33.7829 72.5928 33.8871L71.7928 37.717H70.2288L70.9568 34.217C71.0006 34.0066 70.9589 33.7874 70.8411 33.6076C70.7232 33.4279 70.5388 33.3023 70.3283 33.2586C70.1179 33.2148 69.8987 33.2564 69.7189 33.3743C69.5391 33.4922 69.4136 33.6766 69.3698 33.8871L68.5698 37.717H66.7888C66.5739 37.717 66.3677 37.8024 66.2157 37.9544C66.0637 38.1064 65.9783 38.3126 65.9783 38.5276C65.9783 38.7425 66.0637 38.9487 66.2157 39.1007C66.3677 39.2527 66.5739 39.3381 66.7888 39.3381H68.2378L67.5888 42.4531H65.8078C65.5928 42.4531 65.3867 42.5384 65.2347 42.6904C65.0827 42.8424 64.9973 43.0486 64.9973 43.2636C64.9973 43.4785 65.0827 43.6847 65.2347 43.8367C65.3867 43.9887 65.5928 44.074 65.8078 44.074H67.2518L66.5088 47.6501C66.4828 47.7559 66.4784 47.8658 66.4958 47.9734C66.5132 48.081 66.5522 48.1839 66.6103 48.2761C66.6684 48.3683 66.7444 48.4478 66.834 48.5099C66.9235 48.5721 67.0246 48.6155 67.1313 48.6377C67.2379 48.6599 67.348 48.6603 67.4548 48.639C67.5617 48.6177 67.6632 48.5751 67.7532 48.5137C67.8432 48.4524 67.92 48.3735 67.9789 48.2818C68.0377 48.1901 68.0775 48.0875 68.0958 47.9801L68.9078 44.074H70.4758L69.7328 47.6501C69.7068 47.7559 69.7024 47.8658 69.7198 47.9734C69.7372 48.081 69.7762 48.1839 69.8343 48.2761C69.8924 48.3683 69.9684 48.4478 70.058 48.5099C70.1475 48.5721 70.2486 48.6155 70.3553 48.6377C70.4619 48.6599 70.572 48.6603 70.6788 48.639C70.7857 48.6177 70.8872 48.5751 70.9772 48.5137C71.0672 48.4524 71.144 48.3735 71.2029 48.2818C71.2617 48.1901 71.3015 48.0875 71.3198 47.9801L72.1318 44.074H73.9318C74.1468 44.074 74.3529 43.9887 74.5049 43.8367C74.6569 43.6847 74.7423 43.4785 74.7423 43.2636C74.7423 43.0486 74.6569 42.8424 74.5049 42.6904C74.3529 42.5384 74.1468 42.4531 73.9318 42.4531H72.4738L73.1208 39.3381H74.9108C75.1258 39.3381 75.3319 39.2527 75.4839 39.1007C75.6359 38.9487 75.7213 38.7425 75.7213 38.5276C75.7213 38.3126 75.6359 38.1064 75.4839 37.9544C75.3319 37.8024 75.1258 37.717 74.9108 37.717H74.9048ZM70.8118 42.4531H69.2438L69.8908 39.3381H71.4588L70.8118 42.4531Z"
        fill="#595454"
      />
      <path
        d="M60.3938 45.42C59.6925 45.4199 59.001 45.2555 58.3747 44.9398C57.7485 44.624 57.205 44.1659 56.7879 43.6021C56.3708 43.0384 56.0917 42.3846 55.9729 41.6934C55.8542 41.0022 55.8992 40.2928 56.1043 39.6222C56.3094 38.9515 56.6688 38.3383 57.1538 37.8317C57.6388 37.3251 58.2358 36.9393 58.8969 36.7053C59.558 36.4712 60.2648 36.3954 60.9605 36.4839C61.6562 36.5724 62.3214 36.8228 62.9028 37.215C62.991 37.2746 63.0666 37.351 63.1252 37.4398C63.1839 37.5287 63.2245 37.6282 63.2447 37.7327C63.2649 37.8372 63.2643 37.9447 63.243 38.049C63.2216 38.1533 63.1799 38.2523 63.1203 38.3405C63.0607 38.4287 62.9843 38.5042 62.8955 38.5629C62.8066 38.6215 62.7071 38.6621 62.6026 38.6823C62.4981 38.7025 62.3907 38.702 62.2864 38.6806C62.1821 38.6593 62.083 38.6176 61.9948 38.558C61.6234 38.3077 61.1985 38.148 60.7541 38.0917C60.3098 38.0354 59.8585 38.0841 59.4364 38.2338C59.0142 38.3835 58.6331 38.63 58.3235 38.9537C58.0139 39.2774 57.7846 39.6691 57.6538 40.0975C57.523 40.5258 57.4945 40.9789 57.5705 41.4203C57.6465 41.8616 57.825 42.279 58.0915 42.639C58.358 42.9989 58.7053 43.2914 59.1053 43.4928C59.5053 43.6943 59.9469 43.7991 60.3948 43.799C60.936 43.8164 61.4638 43.6289 61.8728 43.274C61.95 43.2049 62.0222 43.1304 62.0888 43.051C62.1572 42.9694 62.2409 42.9021 62.3353 42.853C62.4296 42.8038 62.5328 42.7737 62.6388 42.7643C62.7448 42.755 62.8516 42.7666 62.9531 42.7986C63.0546 42.8305 63.1488 42.8821 63.2303 42.9505C63.3119 43.0188 63.3792 43.1026 63.4284 43.197C63.4775 43.2913 63.5077 43.3944 63.517 43.5004C63.5263 43.6064 63.5147 43.7132 63.4827 43.8147C63.4508 43.9162 63.3992 44.0105 63.3308 44.092C62.9731 44.5204 62.523 44.8623 62.0144 45.0921C61.5058 45.3219 60.9518 45.4337 60.3938 45.419V45.42Z"
        fill="#595454"
      />
      <path
        d="M132.34 406.206C132.34 405.278 131.971 404.388 131.315 403.731C130.658 403.075 129.768 402.706 128.84 402.706H96.0178C95.0896 402.706 94.1993 403.075 93.5429 403.731C92.8866 404.388 92.5178 405.278 92.5178 406.206V413.206L93.2958 413.984H131.562L132.34 413.206V406.206Z"
        fill="#6364D9"
      />
      <path
        d="M132.34 406.206V413.206L131.562 413.984H112.429V402.706H128.84C129.768 402.706 130.658 403.075 131.315 403.731C131.971 404.388 132.34 405.278 132.34 406.206Z"
        fill="#6364D9"
      />
      <path
        d="M126.429 407.373H119.429C119.125 407.382 118.837 407.509 118.626 407.727C118.414 407.944 118.296 408.236 118.296 408.54C118.296 408.843 118.414 409.135 118.626 409.353C118.837 409.57 119.125 409.697 119.429 409.706H126.429C126.585 409.711 126.74 409.684 126.886 409.627C127.031 409.571 127.164 409.486 127.276 409.377C127.388 409.268 127.477 409.138 127.538 408.994C127.599 408.85 127.63 408.696 127.63 408.54C127.63 408.383 127.599 408.229 127.538 408.085C127.477 407.941 127.388 407.811 127.276 407.702C127.164 407.594 127.031 407.508 126.886 407.452C126.74 407.395 126.585 407.368 126.429 407.373V407.373Z"
        fill="#8485FF"
      />
      <path
        d="M107.518 409.706C108.07 409.706 108.518 409.258 108.518 408.706C108.518 408.154 108.07 407.706 107.518 407.706C106.966 407.706 106.518 408.154 106.518 408.706C106.518 409.258 106.966 409.706 107.518 409.706Z"
        fill="#F03800"
      />
      <path
        d="M102.518 409.706C103.07 409.706 103.518 409.258 103.518 408.706C103.518 408.154 103.07 407.706 102.518 407.706C101.966 407.706 101.518 408.154 101.518 408.706C101.518 409.258 101.966 409.706 102.518 409.706Z"
        fill="#FDBF00"
      />
      <path
        d="M98.5178 409.706C99.0701 409.706 99.5178 409.258 99.5178 408.706C99.5178 408.154 99.0701 407.706 98.5178 407.706C97.9655 407.706 97.5178 408.154 97.5178 408.706C97.5178 409.258 97.9655 409.706 98.5178 409.706Z"
        fill="#37D742"
      />
      <path
        d="M92.5178 413.206V438.872C92.5178 439.8 92.8866 440.691 93.5429 441.347C94.1993 442.003 95.0896 442.372 96.0178 442.372H128.84C129.768 442.372 130.658 442.003 131.315 441.347C131.971 440.691 132.34 439.8 132.34 438.872V413.206H92.5178Z"
        fill="white"
      />
      <path
        d="M132.34 413.206V438.872C132.34 439.8 131.971 440.691 131.315 441.347C130.658 442.003 129.768 442.372 128.84 442.372H112.429V413.206H132.34Z"
        fill="white"
      />
      <path
        d="M116.389 417.967C116.104 417.845 115.783 417.841 115.496 417.956C115.209 418.071 114.979 418.296 114.857 418.58L107.857 434.913C107.793 435.054 107.758 435.207 107.754 435.362C107.75 435.517 107.777 435.672 107.833 435.816C107.889 435.961 107.974 436.093 108.082 436.204C108.19 436.316 108.318 436.405 108.461 436.466C108.604 436.527 108.757 436.559 108.912 436.56C109.067 436.561 109.221 436.531 109.364 436.472C109.508 436.413 109.638 436.326 109.748 436.216C109.857 436.106 109.944 435.976 110.002 435.832L117.002 419.499C117.124 419.215 117.128 418.893 117.013 418.606C116.898 418.319 116.673 418.089 116.389 417.967V417.967Z"
        fill="#FF641A"
      />
      <path
        d="M117.002 419.499L112.429 430.169V424.244L114.856 418.58C114.914 418.436 115.001 418.306 115.11 418.196C115.219 418.086 115.35 417.999 115.493 417.94C115.637 417.881 115.79 417.851 115.945 417.852C116.101 417.853 116.254 417.885 116.397 417.946C116.539 418.008 116.668 418.096 116.776 418.208C116.884 418.32 116.968 418.451 117.025 418.596C117.081 418.741 117.108 418.895 117.104 419.05C117.099 419.205 117.064 419.358 117.001 419.499H117.002Z"
        fill="#F03800"
      />
      <path
        d="M106.157 430.961L101.463 427.205L106.157 423.449C106.28 423.354 106.383 423.236 106.46 423.101C106.537 422.967 106.586 422.818 106.604 422.664C106.623 422.51 106.611 422.354 106.568 422.204C106.526 422.055 106.454 421.916 106.357 421.795C106.26 421.673 106.14 421.573 106.004 421.499C105.867 421.424 105.717 421.378 105.563 421.363C105.409 421.347 105.253 421.362 105.104 421.408C104.956 421.453 104.818 421.528 104.699 421.627L98.8659 426.294C98.7293 426.403 98.6191 426.542 98.5433 426.7C98.4676 426.857 98.4282 427.03 98.4282 427.205C98.4282 427.38 98.4676 427.553 98.5433 427.71C98.6191 427.868 98.7293 428.007 98.8659 428.116L104.699 432.783C104.818 432.882 104.956 432.957 105.104 433.002C105.253 433.048 105.409 433.063 105.563 433.047C105.717 433.032 105.867 432.986 106.004 432.911C106.14 432.837 106.26 432.737 106.357 432.616C106.454 432.494 106.526 432.355 106.568 432.206C106.611 432.057 106.623 431.9 106.604 431.746C106.586 431.592 106.537 431.443 106.46 431.309C106.383 431.174 106.28 431.056 106.157 430.961Z"
        fill="#FF641A"
      />
      <path
        d="M125.991 426.295L120.158 421.628C120.039 421.529 119.901 421.454 119.752 421.409C119.604 421.363 119.448 421.348 119.294 421.364C119.139 421.379 118.989 421.425 118.853 421.5C118.717 421.574 118.597 421.674 118.5 421.796C118.403 421.917 118.331 422.056 118.288 422.205C118.246 422.354 118.234 422.511 118.252 422.665C118.271 422.819 118.32 422.968 118.397 423.102C118.474 423.237 118.577 423.355 118.7 423.45L123.394 427.206L118.7 430.962C118.577 431.057 118.474 431.175 118.397 431.31C118.32 431.444 118.271 431.593 118.252 431.747C118.234 431.901 118.246 432.058 118.288 432.207C118.331 432.356 118.403 432.495 118.5 432.616C118.597 432.738 118.717 432.838 118.853 432.912C118.989 432.987 119.139 433.033 119.294 433.048C119.448 433.064 119.604 433.049 119.752 433.003C119.901 432.958 120.039 432.883 120.158 432.784L125.991 428.117C126.127 428.008 126.238 427.869 126.313 427.711C126.389 427.554 126.428 427.381 126.428 427.206C126.428 427.031 126.389 426.858 126.313 426.701C126.238 426.543 126.127 426.404 125.991 426.295V426.295Z"
        fill="#F03800"
      />
      <path
        d="M289.713 38.189H323.713C324.243 38.1905 324.751 38.4018 325.126 38.7765C325.5 39.1512 325.712 39.659 325.713 40.189V66.189C325.712 66.7189 325.5 67.2267 325.126 67.6014C324.751 67.9762 324.243 68.1874 323.713 68.189H320.713C320.448 68.189 320.194 68.2943 320.006 68.4819C319.818 68.6694 319.713 68.9237 319.713 69.189V72.189C319.712 72.5579 319.609 72.9193 319.416 73.2334C319.222 73.5475 318.946 73.8019 318.617 73.9685C318.287 74.1351 317.919 74.2075 317.551 74.1776C317.183 74.1477 316.831 74.0166 316.533 73.799L309.243 68.569C308.899 68.3219 308.487 68.189 308.063 68.189H289.713C289.183 68.1874 288.675 67.9762 288.301 67.6014C287.926 67.2267 287.715 66.7189 287.713 66.189V40.189C287.713 39.6585 287.924 39.1498 288.299 38.7748C288.674 38.3997 289.183 38.189 289.713 38.189V38.189Z"
        fill="#866ADC"
      />
      <path
        d="M267.713 18.189V44.189C267.713 44.7194 267.924 45.2281 268.299 45.6032C268.674 45.9783 269.183 46.189 269.713 46.189H272.713C272.978 46.189 273.233 46.2943 273.42 46.4819C273.608 46.6694 273.713 46.9237 273.713 47.189V50.189C273.713 50.5579 273.815 50.9196 274.008 51.2342C274.201 51.5487 274.477 51.8039 274.805 51.9713C275.134 52.1388 275.503 52.2121 275.87 52.1831C276.238 52.154 276.591 52.0239 276.889 51.807L284.189 46.576C284.53 46.3262 284.941 46.1908 285.363 46.189H303.713C304.244 46.189 304.752 45.9783 305.127 45.6032C305.502 45.2281 305.713 44.7194 305.713 44.189V18.189C305.713 17.6585 305.502 17.1498 305.127 16.7748C304.752 16.3997 304.244 16.189 303.713 16.189H269.713C269.183 16.189 268.674 16.3997 268.299 16.7748C267.924 17.1498 267.713 17.6585 267.713 18.189V18.189Z"
        fill="#31B791"
      />
      <path
        d="M281.713 28.1889C281.448 28.1889 281.194 28.0835 281.006 27.8959L278.006 24.8959C277.819 24.7084 277.713 24.4541 277.713 24.1889C277.713 23.9238 277.819 23.6695 278.006 23.4819L281.006 20.4819C281.098 20.3864 281.209 20.3102 281.331 20.2578C281.453 20.2054 281.584 20.1778 281.717 20.1767C281.85 20.1755 281.981 20.2008 282.104 20.2511C282.227 20.3014 282.339 20.3756 282.433 20.4695C282.526 20.5634 282.601 20.6751 282.651 20.798C282.701 20.9209 282.727 21.0525 282.725 21.1853C282.724 21.3181 282.697 21.4493 282.644 21.5713C282.592 21.6933 282.516 21.8037 282.42 21.8959L280.127 24.1889L282.42 26.4819C282.56 26.6218 282.655 26.7999 282.694 26.9939C282.732 27.1878 282.713 27.3889 282.637 27.5716C282.561 27.7543 282.433 27.9104 282.269 28.0203C282.104 28.1302 281.911 28.1889 281.713 28.1889Z"
        fill="#F0F2F5"
      />
      <path
        d="M291.713 28.189C291.515 28.189 291.322 28.1303 291.158 28.0204C290.993 27.9105 290.865 27.7544 290.789 27.5717C290.714 27.389 290.694 27.1879 290.733 26.994C290.771 26.8 290.866 26.6219 291.006 26.482L293.299 24.189L291.006 21.896C290.824 21.7074 290.723 21.4548 290.725 21.1926C290.728 20.9304 290.833 20.6796 291.018 20.4942C291.204 20.3088 291.455 20.2036 291.717 20.2013C291.979 20.1991 292.232 20.2998 292.42 20.482L295.42 23.482C295.608 23.6695 295.713 23.9238 295.713 24.189C295.713 24.4542 295.608 24.7085 295.42 24.896L292.42 27.896C292.233 28.0836 291.978 28.1889 291.713 28.189Z"
        fill="#F0F2F5"
      />
      <path
        d="M285.713 29.189C285.631 29.1893 285.549 29.1792 285.47 29.159C285.343 29.1272 285.223 29.0706 285.117 28.9924C285.011 28.9142 284.922 28.816 284.855 28.7033C284.787 28.5907 284.742 28.4658 284.723 28.3359C284.704 28.2059 284.71 28.0734 284.742 27.946L286.742 19.946C286.808 19.6904 286.972 19.4713 287.199 19.3364C287.426 19.2015 287.697 19.1618 287.953 19.2259C288.209 19.29 288.43 19.4528 288.566 19.6788C288.703 19.9047 288.744 20.1755 288.682 20.432L286.682 28.432C286.628 28.6481 286.503 28.8399 286.328 28.977C286.152 29.1142 285.936 29.1888 285.713 29.189Z"
        fill="#F0F2F5"
      />
      <path
        d="M301.713 59.189C301.448 59.1889 301.194 59.0836 301.006 58.896L299.006 56.896C298.819 56.7085 298.713 56.4542 298.713 56.189C298.713 55.9238 298.819 55.6695 299.006 55.482L301.006 53.482C301.195 53.2998 301.447 53.1991 301.71 53.2013C301.972 53.2036 302.223 53.3088 302.408 53.4942C302.593 53.6796 302.699 53.9304 302.701 54.1926C302.703 54.4548 302.602 54.7074 302.42 54.896L301.127 56.189L302.42 57.482C302.56 57.6219 302.655 57.8 302.694 57.994C302.732 58.1879 302.713 58.389 302.637 58.5717C302.561 58.7544 302.433 58.9105 302.269 59.0204C302.104 59.1303 301.911 59.189 301.713 59.189Z"
        fill="white"
      />
      <path
        d="M310.713 59.189C310.515 59.189 310.322 59.1303 310.158 59.0204C309.993 58.9105 309.865 58.7544 309.789 58.5717C309.714 58.389 309.694 58.1879 309.733 57.994C309.771 57.8 309.866 57.6219 310.006 57.482L311.299 56.189L310.006 54.896C309.824 54.7074 309.723 54.4548 309.725 54.1926C309.728 53.9304 309.833 53.6796 310.018 53.4942C310.204 53.3088 310.455 53.2036 310.717 53.2013C310.979 53.1991 311.232 53.2998 311.42 53.482L313.42 55.482C313.608 55.6695 313.713 55.9238 313.713 56.189C313.713 56.4542 313.608 56.7085 313.42 56.896L311.42 58.896C311.233 59.0836 310.978 59.1889 310.713 59.189V59.189Z"
        fill="white"
      />
      <path
        d="M305.713 60.1889C305.658 60.1892 305.603 60.1845 305.548 60.1749C305.287 60.1313 305.053 59.9857 304.899 59.77C304.745 59.5544 304.683 59.2864 304.726 59.0249L305.726 53.0249C305.776 52.7698 305.924 52.5444 306.138 52.3964C306.352 52.2484 306.615 52.1895 306.871 52.2322C307.128 52.2748 307.358 52.4157 307.512 52.6249C307.666 52.8342 307.733 53.0953 307.698 53.3529L306.698 59.3529C306.659 59.5862 306.539 59.7983 306.359 59.9513C306.178 60.1044 305.95 60.1886 305.713 60.1889Z"
        fill="white"
      />
      <path
        d="M300.713 34.189H299.713C299.448 34.189 299.194 34.0836 299.006 33.8961C298.818 33.7085 298.713 33.4542 298.713 33.189C298.713 32.9237 298.818 32.6694 299.006 32.4819C299.194 32.2943 299.448 32.189 299.713 32.189H300.713C300.978 32.189 301.233 32.2943 301.42 32.4819C301.608 32.6694 301.713 32.9237 301.713 33.189C301.713 33.4542 301.608 33.7085 301.42 33.8961C301.233 34.0836 300.978 34.189 300.713 34.189Z"
        fill="#F0F2F5"
      />
      <path
        d="M300.713 38.189H299.713C299.448 38.189 299.194 38.0836 299.006 37.8961C298.818 37.7085 298.713 37.4542 298.713 37.189C298.713 36.9237 298.818 36.6694 299.006 36.4819C299.194 36.2943 299.448 36.189 299.713 36.189H300.713C300.978 36.189 301.233 36.2943 301.42 36.4819C301.608 36.6694 301.713 36.9237 301.713 37.189C301.713 37.4542 301.608 37.7085 301.42 37.8961C301.233 38.0836 300.978 38.189 300.713 38.189Z"
        fill="#F0F2F5"
      />
      <path
        d="M295.713 34.189H273.713C273.448 34.189 273.194 34.0836 273.006 33.8961C272.818 33.7085 272.713 33.4542 272.713 33.189C272.713 32.9237 272.818 32.6694 273.006 32.4819C273.194 32.2943 273.448 32.189 273.713 32.189H295.713C295.978 32.189 296.233 32.2943 296.42 32.4819C296.608 32.6694 296.713 32.9237 296.713 33.189C296.713 33.4542 296.608 33.7085 296.42 33.8961C296.233 34.0836 295.978 34.189 295.713 34.189Z"
        fill="#F0F2F5"
      />
      <path
        d="M286.713 42.189H273.713C273.448 42.189 273.194 42.0836 273.006 41.8961C272.818 41.7085 272.713 41.4542 272.713 41.189C272.713 40.9237 272.818 40.6694 273.006 40.4819C273.194 40.2943 273.448 40.189 273.713 40.189H286.713C286.978 40.189 287.233 40.2943 287.42 40.4819C287.608 40.6694 287.713 40.9237 287.713 41.189C287.713 41.4542 287.608 41.7085 287.42 41.8961C287.233 42.0836 286.978 42.189 286.713 42.189Z"
        fill="#F0F2F5"
      />
      <path
        d="M295.713 38.189H278.713C278.448 38.189 278.194 38.0836 278.006 37.8961C277.818 37.7085 277.713 37.4542 277.713 37.189C277.713 36.9237 277.818 36.6694 278.006 36.4819C278.194 36.2943 278.448 36.189 278.713 36.189H295.713C295.978 36.189 296.233 36.2943 296.42 36.4819C296.608 36.6694 296.713 36.9237 296.713 37.189C296.713 37.4542 296.608 37.7085 296.42 37.8961C296.233 38.0836 295.978 38.189 295.713 38.189Z"
        fill="#F0F2F5"
      />
      <path
        d="M274.713 38.189H273.713C273.448 38.189 273.194 38.0836 273.006 37.8961C272.818 37.7085 272.713 37.4542 272.713 37.189C272.713 36.9237 272.818 36.6694 273.006 36.4819C273.194 36.2943 273.448 36.189 273.713 36.189H274.713C274.978 36.189 275.233 36.2943 275.42 36.4819C275.608 36.6694 275.713 36.9237 275.713 37.189C275.713 37.4542 275.608 37.7085 275.42 37.8961C275.233 38.0836 274.978 38.189 274.713 38.189Z"
        fill="#F0F2F5"
      />
      <path
        d="M299.713 63.189C298.652 63.189 297.635 62.7675 296.885 62.0174C296.134 61.2672 295.713 60.2498 295.713 59.189C295.713 58.54 294.289 57.543 293.305 57.102C293.129 57.0231 292.98 56.8949 292.875 56.733C292.77 56.5711 292.714 56.3824 292.714 56.1895C292.714 55.9966 292.77 55.8078 292.875 55.6459C292.98 55.484 293.129 55.3559 293.305 55.277C294.443 54.763 295.713 53.779 295.713 53.189C295.713 52.1281 296.134 51.1107 296.885 50.3605C297.635 49.6104 298.652 49.189 299.713 49.189C299.978 49.189 300.233 49.2943 300.42 49.4819C300.608 49.6694 300.713 49.9237 300.713 50.189C300.713 50.4542 300.608 50.7085 300.42 50.8961C300.233 51.0836 299.978 51.189 299.713 51.189C299.183 51.189 298.674 51.3997 298.299 51.7747C297.924 52.1498 297.713 52.6585 297.713 53.189C297.637 53.8104 297.416 54.4054 297.069 54.9263C296.722 55.4472 296.257 55.8796 295.713 56.189C296.257 56.4983 296.722 56.9307 297.069 57.4516C297.416 57.9726 297.637 58.5675 297.713 59.189C297.713 59.7194 297.924 60.2281 298.299 60.6032C298.674 60.9783 299.183 61.189 299.713 61.189C299.978 61.189 300.233 61.2943 300.42 61.4819C300.608 61.6694 300.713 61.9237 300.713 62.189C300.713 62.4542 300.608 62.7085 300.42 62.8961C300.233 63.0836 299.978 63.189 299.713 63.189Z"
        fill="white"
      />
      <path
        d="M312.713 63.189C312.448 63.189 312.194 63.0836 312.006 62.8961C311.818 62.7085 311.713 62.4542 311.713 62.189C311.713 61.9237 311.818 61.6694 312.006 61.4819C312.194 61.2943 312.448 61.189 312.713 61.189C313.244 61.189 313.752 60.9783 314.127 60.6032C314.502 60.2281 314.713 59.7194 314.713 59.189C314.789 58.5675 315.01 57.9726 315.357 57.4516C315.704 56.9307 316.169 56.4983 316.713 56.189C316.169 55.8796 315.704 55.4472 315.357 54.9263C315.01 54.4054 314.789 53.8104 314.713 53.189C314.713 52.6585 314.502 52.1498 314.127 51.7747C313.752 51.3997 313.244 51.189 312.713 51.189C312.448 51.189 312.194 51.0836 312.006 50.8961C311.818 50.7085 311.713 50.4542 311.713 50.189C311.713 49.9237 311.818 49.6694 312.006 49.4819C312.194 49.2943 312.448 49.189 312.713 49.189C313.774 49.189 314.791 49.6104 315.542 50.3605C316.292 51.1107 316.713 52.1281 316.713 53.189C316.713 53.838 318.137 54.835 319.121 55.276C319.297 55.3549 319.447 55.483 319.551 55.6449C319.656 55.8068 319.712 55.9956 319.712 56.1885C319.712 56.3814 319.656 56.5701 319.551 56.732C319.447 56.8939 319.297 57.0221 319.121 57.101C317.983 57.615 316.713 58.599 316.713 59.189C316.713 60.2498 316.292 61.2672 315.542 62.0174C314.791 62.7675 313.774 63.189 312.713 63.189Z"
        fill="white"
      />
      <path
        d="M618.181 157.376H652.181C652.711 157.378 653.219 157.589 653.593 157.964C653.968 158.338 654.179 158.846 654.181 159.376V185.376C654.179 185.906 653.968 186.414 653.593 186.788C653.219 187.163 652.711 187.374 652.181 187.376H649.181C648.916 187.376 648.661 187.481 648.474 187.669C648.286 187.856 648.181 188.111 648.181 188.376V191.376C648.18 191.745 648.077 192.106 647.884 192.42C647.69 192.734 647.413 192.989 647.084 193.156C646.755 193.322 646.386 193.395 646.019 193.365C645.651 193.335 645.299 193.204 645.001 192.986L637.711 187.756C637.367 187.509 636.954 187.376 636.531 187.376H618.181C617.651 187.374 617.143 187.163 616.768 186.788C616.394 186.414 616.182 185.906 616.181 185.376V159.376C616.181 158.846 616.392 158.337 616.767 157.962C617.142 157.587 617.65 157.376 618.181 157.376V157.376Z"
        fill="#866ADC"
      />
      <path
        d="M596.181 137.376V163.376C596.181 163.906 596.392 164.415 596.767 164.79C597.142 165.165 597.65 165.376 598.181 165.376H601.181C601.446 165.376 601.7 165.481 601.888 165.669C602.076 165.856 602.181 166.111 602.181 166.376V169.376C602.181 169.745 602.283 170.107 602.476 170.421C602.668 170.736 602.944 170.991 603.273 171.158C603.602 171.326 603.97 171.399 604.338 171.37C604.706 171.341 605.059 171.211 605.357 170.994L612.657 165.763C612.998 165.513 613.409 165.378 613.831 165.376H632.181C632.711 165.376 633.22 165.165 633.595 164.79C633.97 164.415 634.181 163.906 634.181 163.376V137.376C634.181 136.846 633.97 136.337 633.595 135.962C633.22 135.587 632.711 135.376 632.181 135.376H598.181C597.65 135.376 597.142 135.587 596.767 135.962C596.392 136.337 596.181 136.846 596.181 137.376V137.376Z"
        fill="#31B791"
      />
      <path
        d="M610.181 147.376C609.916 147.376 609.661 147.27 609.474 147.083L606.474 144.083C606.286 143.895 606.181 143.641 606.181 143.376C606.181 143.111 606.286 142.856 606.474 142.669L609.474 139.669C609.566 139.573 609.677 139.497 609.799 139.445C609.921 139.392 610.052 139.365 610.185 139.364C610.317 139.363 610.449 139.388 610.572 139.438C610.695 139.488 610.806 139.563 610.9 139.657C610.994 139.75 611.068 139.862 611.119 139.985C611.169 140.108 611.194 140.24 611.193 140.372C611.192 140.505 611.164 140.636 611.112 140.758C611.06 140.88 610.983 140.991 610.888 141.083L608.595 143.376L610.888 145.669C611.028 145.809 611.123 145.987 611.162 146.181C611.2 146.375 611.18 146.576 611.105 146.759C611.029 146.941 610.901 147.097 610.736 147.207C610.572 147.317 610.379 147.376 610.181 147.376Z"
        fill="#F0F2F5"
      />
      <path
        d="M620.181 147.376C619.983 147.376 619.79 147.317 619.625 147.207C619.461 147.098 619.333 146.941 619.257 146.759C619.182 146.576 619.162 146.375 619.2 146.181C619.239 145.987 619.334 145.809 619.474 145.669L621.767 143.376L619.474 141.083C619.292 140.894 619.191 140.642 619.193 140.38C619.196 140.117 619.301 139.867 619.486 139.681C619.672 139.496 619.922 139.391 620.185 139.388C620.447 139.386 620.699 139.487 620.888 139.669L623.888 142.669C624.075 142.857 624.181 143.111 624.181 143.376C624.181 143.641 624.075 143.895 623.888 144.083L620.888 147.083C620.7 147.271 620.446 147.376 620.181 147.376Z"
        fill="#F0F2F5"
      />
      <path
        d="M614.181 148.376C614.099 148.376 614.017 148.366 613.938 148.346C613.81 148.314 613.69 148.258 613.585 148.179C613.479 148.101 613.39 148.003 613.323 147.89C613.255 147.778 613.21 147.653 613.191 147.523C613.171 147.393 613.178 147.26 613.21 147.133L615.21 139.133C615.276 138.877 615.44 138.658 615.667 138.523C615.894 138.388 616.165 138.349 616.421 138.413C616.677 138.477 616.897 138.64 617.034 138.866C617.171 139.092 617.212 139.362 617.15 139.619L615.15 147.619C615.096 147.835 614.971 148.027 614.795 148.164C614.62 148.301 614.404 148.376 614.181 148.376Z"
        fill="#F0F2F5"
      />
      <path
        d="M630.181 178.376C629.916 178.376 629.661 178.271 629.474 178.083L627.474 176.083C627.286 175.895 627.181 175.641 627.181 175.376C627.181 175.111 627.286 174.857 627.474 174.669L629.474 172.669C629.663 172.487 629.915 172.386 630.177 172.388C630.44 172.391 630.69 172.496 630.876 172.681C631.061 172.867 631.166 173.117 631.169 173.38C631.171 173.642 631.07 173.894 630.888 174.083L629.595 175.376L630.888 176.669C631.028 176.809 631.123 176.987 631.162 177.181C631.2 177.375 631.18 177.576 631.105 177.759C631.029 177.941 630.901 178.098 630.736 178.207C630.572 178.317 630.379 178.376 630.181 178.376Z"
        fill="white"
      />
      <path
        d="M639.181 178.376C638.983 178.376 638.79 178.317 638.625 178.207C638.461 178.098 638.333 177.941 638.257 177.759C638.182 177.576 638.162 177.375 638.2 177.181C638.239 176.987 638.334 176.809 638.474 176.669L639.767 175.376L638.474 174.083C638.292 173.894 638.191 173.642 638.193 173.38C638.196 173.117 638.301 172.867 638.486 172.681C638.672 172.496 638.922 172.391 639.185 172.388C639.447 172.386 639.699 172.487 639.888 172.669L641.888 174.669C642.075 174.857 642.181 175.111 642.181 175.376C642.181 175.641 642.075 175.895 641.888 176.083L639.888 178.083C639.7 178.271 639.446 178.376 639.181 178.376V178.376Z"
        fill="white"
      />
      <path
        d="M634.181 179.376C634.126 179.376 634.07 179.371 634.016 179.362C633.754 179.318 633.521 179.173 633.367 178.957C633.213 178.741 633.151 178.473 633.194 178.212L634.194 172.212C634.244 171.957 634.392 171.731 634.606 171.583C634.82 171.435 635.083 171.377 635.339 171.419C635.596 171.462 635.825 171.603 635.98 171.812C636.134 172.021 636.201 172.282 636.166 172.54L635.166 178.54C635.127 178.773 635.007 178.985 634.827 179.138C634.646 179.291 634.417 179.376 634.181 179.376Z"
        fill="white"
      />
      <path
        d="M629.181 153.376H628.181C627.916 153.376 627.661 153.271 627.474 153.083C627.286 152.896 627.181 152.641 627.181 152.376C627.181 152.111 627.286 151.856 627.474 151.669C627.661 151.481 627.916 151.376 628.181 151.376H629.181C629.446 151.376 629.7 151.481 629.888 151.669C630.076 151.856 630.181 152.111 630.181 152.376C630.181 152.641 630.076 152.896 629.888 153.083C629.7 153.271 629.446 153.376 629.181 153.376Z"
        fill="#F0F2F5"
      />
      <path
        d="M629.181 157.376H628.181C627.916 157.376 627.661 157.271 627.474 157.083C627.286 156.896 627.181 156.641 627.181 156.376C627.181 156.111 627.286 155.856 627.474 155.669C627.661 155.481 627.916 155.376 628.181 155.376H629.181C629.446 155.376 629.7 155.481 629.888 155.669C630.076 155.856 630.181 156.111 630.181 156.376C630.181 156.641 630.076 156.896 629.888 157.083C629.7 157.271 629.446 157.376 629.181 157.376Z"
        fill="#F0F2F5"
      />
      <path
        d="M624.181 153.376H602.181C601.916 153.376 601.661 153.271 601.474 153.083C601.286 152.896 601.181 152.641 601.181 152.376C601.181 152.111 601.286 151.856 601.474 151.669C601.661 151.481 601.916 151.376 602.181 151.376H624.181C624.446 151.376 624.7 151.481 624.888 151.669C625.076 151.856 625.181 152.111 625.181 152.376C625.181 152.641 625.076 152.896 624.888 153.083C624.7 153.271 624.446 153.376 624.181 153.376Z"
        fill="#F0F2F5"
      />
      <path
        d="M615.181 161.376H602.181C601.916 161.376 601.661 161.271 601.474 161.083C601.286 160.896 601.181 160.641 601.181 160.376C601.181 160.111 601.286 159.856 601.474 159.669C601.661 159.481 601.916 159.376 602.181 159.376H615.181C615.446 159.376 615.7 159.481 615.888 159.669C616.076 159.856 616.181 160.111 616.181 160.376C616.181 160.641 616.076 160.896 615.888 161.083C615.7 161.271 615.446 161.376 615.181 161.376Z"
        fill="#F0F2F5"
      />
      <path
        d="M624.181 157.376H607.181C606.916 157.376 606.661 157.271 606.474 157.083C606.286 156.896 606.181 156.641 606.181 156.376C606.181 156.111 606.286 155.856 606.474 155.669C606.661 155.481 606.916 155.376 607.181 155.376H624.181C624.446 155.376 624.7 155.481 624.888 155.669C625.076 155.856 625.181 156.111 625.181 156.376C625.181 156.641 625.076 156.896 624.888 157.083C624.7 157.271 624.446 157.376 624.181 157.376Z"
        fill="#F0F2F5"
      />
      <path
        d="M603.181 157.376H602.181C601.916 157.376 601.661 157.271 601.474 157.083C601.286 156.896 601.181 156.641 601.181 156.376C601.181 156.111 601.286 155.856 601.474 155.669C601.661 155.481 601.916 155.376 602.181 155.376H603.181C603.446 155.376 603.7 155.481 603.888 155.669C604.076 155.856 604.181 156.111 604.181 156.376C604.181 156.641 604.076 156.896 603.888 157.083C603.7 157.271 603.446 157.376 603.181 157.376Z"
        fill="#F0F2F5"
      />
      <path
        d="M628.181 182.376C627.12 182.376 626.103 181.955 625.352 181.204C624.602 180.454 624.181 179.437 624.181 178.376C624.181 177.727 622.757 176.73 621.773 176.289C621.597 176.21 621.447 176.082 621.343 175.92C621.238 175.758 621.182 175.569 621.182 175.376C621.182 175.184 621.238 174.995 621.343 174.833C621.447 174.671 621.597 174.543 621.773 174.464C622.911 173.95 624.181 172.966 624.181 172.376C624.181 171.315 624.602 170.298 625.352 169.548C626.103 168.797 627.12 168.376 628.181 168.376C628.446 168.376 628.7 168.481 628.888 168.669C629.075 168.856 629.181 169.111 629.181 169.376C629.181 169.641 629.075 169.896 628.888 170.083C628.7 170.271 628.446 170.376 628.181 170.376C627.65 170.376 627.142 170.587 626.767 170.962C626.392 171.337 626.181 171.846 626.181 172.376C626.105 172.997 625.884 173.592 625.537 174.113C625.19 174.634 624.725 175.067 624.181 175.376C624.725 175.685 625.19 176.118 625.537 176.639C625.884 177.16 626.105 177.755 626.181 178.376C626.181 178.906 626.392 179.415 626.767 179.79C627.142 180.165 627.65 180.376 628.181 180.376C628.446 180.376 628.7 180.481 628.888 180.669C629.075 180.856 629.181 181.111 629.181 181.376C629.181 181.641 629.075 181.896 628.888 182.083C628.7 182.271 628.446 182.376 628.181 182.376Z"
        fill="white"
      />
      <path
        d="M641.181 182.376C640.916 182.376 640.661 182.271 640.474 182.083C640.286 181.896 640.181 181.641 640.181 181.376C640.181 181.111 640.286 180.856 640.474 180.669C640.661 180.481 640.916 180.376 641.181 180.376C641.711 180.376 642.22 180.165 642.595 179.79C642.97 179.415 643.181 178.906 643.181 178.376C643.257 177.755 643.478 177.16 643.825 176.639C644.172 176.118 644.637 175.685 645.181 175.376C644.637 175.067 644.172 174.634 643.825 174.113C643.478 173.592 643.257 172.997 643.181 172.376C643.181 171.846 642.97 171.337 642.595 170.962C642.22 170.587 641.711 170.376 641.181 170.376C640.916 170.376 640.661 170.271 640.474 170.083C640.286 169.896 640.181 169.641 640.181 169.376C640.181 169.111 640.286 168.856 640.474 168.669C640.661 168.481 640.916 168.376 641.181 168.376C642.242 168.376 643.259 168.797 644.009 169.548C644.759 170.298 645.181 171.315 645.181 172.376C645.181 173.025 646.605 174.022 647.589 174.463C647.765 174.542 647.914 174.67 648.019 174.832C648.124 174.994 648.18 175.183 648.18 175.375C648.18 175.568 648.124 175.757 648.019 175.919C647.914 176.081 647.765 176.209 647.589 176.288C646.451 176.802 645.181 177.786 645.181 178.376C645.181 179.437 644.759 180.454 644.009 181.204C643.259 181.955 642.242 182.376 641.181 182.376Z"
        fill="white"
      />
    </svg>
